<svg fill="#FFFFFF" width="100pt" height="100pt" version="1.1" viewBox="0 0 100 100" xmlns="http://www.w3.org/2000/svg" class="wave w-16 h-16 sm:w-30 sm:h-30"><path d="m73.32 6.0703c-2.1719-0.28125-4.3203 0.32031-6.0312 1.6797-1.7188 1.3594-2.7891 3.3086-3.0195 5.4883l-2.4102 23.09-3.8711-23.129c-0.35938-2.1797-1.5586-4.0781-3.3594-5.3594-1.8008-1.2812-3.9883-1.7695-6.1719-1.3984-2.1602 0.37109-4.0508 1.5703-5.3203 3.3594-1.2695 1.7891-1.7695 3.9688-1.3984 6.1406l2.0586 12.16c-1.5781-0.96875-3.5117-1.3906-5.4688-1.0391-3.7188 0.64844-6.3789 3.8008-6.5508 7.4219-1.6602-1.0508-3.6289-1.4492-5.5781-1.1094-4.3008 0.75-7.1914 4.8516-6.4414 9.1484l1.75 10.039v0.14844 14.07c0 3.6797 0.71875 7.2383 2.1406 10.602 1.3711 3.2383 3.3281 6.1484 5.8398 8.6602 2.5 2.5 5.4102 4.4609 8.6602 5.8398 3.3594 1.4219 6.9219 2.1406 10.602 2.1406s7.2383-0.71875 10.602-2.1406c3.2383-1.3711 6.1484-3.3281 8.6602-5.8398s4.4609-5.4102 5.8398-8.6602c1.4219-3.3594 2.1406-6.9219 2.1406-10.602v-12.57l4.3594-39.211c0.23828-2.1211-0.35156-4.2188-1.6719-5.8984-1.3203-1.6797-3.2109-2.7617-5.3281-3.0312zm-24.379 3.1094c1.4414-0.25 2.8906 0.078124 4.0781 0.92969 1.1914 0.85156 1.9805 2.1016 2.2188 3.5391l5.4219 32.398h-10.988l-5.1797-30.602c-0.5-2.9492 1.4883-5.7695 4.4492-6.2812zm-10.129 20.609c2.7812-0.48047 5.4414 1.3906 5.9297 4.1719l2.1406 12.301c-3.5898 0.80859-6.2891 4.0312-6.2891 7.8711v0.089844c-1.75-0.57812-3.0898-2.0781-3.4219-3.9883l-2.5312-14.512c-0.48047-2.7812 1.3906-5.4414 4.1719-5.9297zm-12.129 6.3203c0.30078-0.050781 0.58984-0.078125 0.89062-0.078125 1.0508 0 2.0586 0.32031 2.9414 0.92969 1.1211 0.78906 1.8594 1.9609 2.1016 3.3086l1.8203 10.43c0.23047 1.3516-0.070312 2.7109-0.85938 3.8281-0.78906 1.1211-1.9609 1.8594-3.3086 2.1016-1.3516 0.23047-2.7109-0.070312-3.8281-0.85938-1.1211-0.78906-1.8594-1.9609-2.1016-3.3086l-1.8203-10.43c-0.48047-2.7812 1.3906-5.4414 4.1719-5.9297zm46.5 30.672c0 3.3008-0.64844 6.5-1.9219 9.5117-1.2305 2.9102-2.9883 5.5195-5.2383 7.7695s-4.8594 4.0117-7.7695 5.2383c-3.0117 1.2695-6.2109 1.9219-9.5117 1.9219-3.3008 0-6.5-0.64844-9.5117-1.9219-2.9102-1.2305-5.5195-2.9883-7.7695-5.2383s-4.0117-4.8594-5.2383-7.7695c-1.2695-3.0117-1.9219-6.2109-1.9219-9.5117v-9.1211c0.17188 0.14062 0.35156 0.28125 0.53125 0.41016 1.3516 0.94922 2.9219 1.4414 4.5391 1.4414 0.46094 0 0.91016-0.039063 1.3711-0.12109 2.0781-0.35938 3.8984-1.5117 5.1094-3.2383 0.28125-0.39844 0.51953-0.82031 0.71875-1.25 0.19141 0.19141 0.37891 0.37109 0.58984 0.53906 1.1602 0.96094 2.5703 1.5781 4.0508 1.7695 1.2109 2.9297 4.1016 4.9883 7.4609 4.9883h5.9492c-1.0508 0.62109-2.0703 1.3711-3 2.2891-2.8281 2.8086-4.2695 6.5781-4.2695 11.211 0 0.76953 0.62109 1.3906 1.3906 1.3906 0.76953 0 1.3906-0.62109 1.3906-1.3906 0-3.8516 1.1484-6.9609 3.4297-9.2188 4.1914-4.1719 10.941-4.2812 11.359-4.2891h0.03125c0.76953 0 1.3906-0.62109 1.3906-1.3906s-0.60938-1.3906-1.3789-1.3984h-0.089844-16.219c-2.9102 0-5.2812-2.3711-5.2812-5.2812s2.3711-5.2812 5.2812-5.2812h19.238c2.9102 0 5.2812 2.3711 5.2812 5.2812v12.648zm4.3789-52.09-3.7695 33.93c-1.4688-1.5703-3.5703-2.5508-5.8789-2.5508h-4.25l3.3984-32.531c0.14844-1.4297 0.85156-2.6992 1.9805-3.5898 1.1211-0.89062 2.5312-1.2812 3.9492-1.1016 1.3906 0.17969 2.6289 0.87891 3.4883 1.9805s1.25 2.4688 1.0898 3.8711z"></path></svg>